# xmcd CD database file
#
# Track frame offsets:
# 150
# 17232
# 27517
# 43016
# 60399
# 79024
# 98004
# 114735
# 130488
# 144200
# 161109
# 176388
# 191881
# 209703
# 225063
# 238559
# 256066
# 273410
# 289359
# 299266
# 313948
# 331028
#
# Disc length: 4687  seconds
#
# Revision: 0
# Processed by: cddbd v1.5.1PL2 Copyright (c) Steve Scherf et al.
# Submitted via: Kronen-Design 1.33
#
DISCID=3f124d16
DTITLE=VARIOUS HPS - Keep it country Vol. 72
DYEAR=1900
DGENRE=
TTITLE0=Steve Azar - You Don't Know A Thing
TTITLE1=Rhett Akins - Every Cowboy's Dream
TTITLE2=Kenny Chesney - Summertime
TTITLE3=Brooks and Dunn Ft. Sheryl Crow and Vince Gill - Building Bridge
TTITLE3=s
TTITLE4=Rascal Flatts - My Wish
TTITLE5=Tim Mcgraw - I've Got Friends That Do (Bonus)
TTITLE6=Jeff Bates - One Second Chance
TTITLE7=Brian McComas - Good Good Lovin'
TTITLE8=Billy Dean - Swinging for the Fence
TTITLE9=Trent Tomlinson - One Wing In The Fire
TTITLE10=Jason Aldean - Amarillo Sky
TTITLE11=Clint Black - Heartaches
TTITLE12=LeAnn Rimes - Something's Gotta Give
TTITLE13=Shedaisy - Whatever It Takes
TTITLE14=Scotty Emerick - What's Up With That
TTITLE15=Rushlow Harris - That's So You
TTITLE16=Pat Green - Feels Just Like It Should
TTITLE17=Gary Nichols - Unbroken Ground
TTITLE18=Alan Jackson - I'll Fly Away
TTITLE19=Luke Stricklin - Does that Make Me Bad?
TTITLE20=Bomshel - Ain't My Day To Care
TTITLE21=Dixie Chicks - The Long Way Around
EXTD=
EXTT0=
EXTT1=
EXTT2=
EXTT3=
EXTT4=
EXTT5=
EXTT6=
EXTT7=
EXTT8=
EXTT9=
EXTT10=
EXTT11=
EXTT12=
EXTT13=
EXTT14=
EXTT15=
EXTT16=
EXTT17=
EXTT18=
EXTT19=
EXTT20=
EXTT21=
PLAYORDER=
